# xmcd
#
# Track frame offsets:
#	150
#	13010
#	22178
#	37205
#	48969
#	59222
#	69506
#	79426
#	91979
#	103882
#	118772
#	130718
#	142592
#	152259
#	165002
#	176123
#	186449
#	198858
#	209101
#	219814
#
# Disc length: 3066
#
# Revision: 1
# Processed by: cddbd v1.5.1PL0 Copyright (c) Steve Scherf et al.
# Submitted via: dBpowerAMP V4.0
# Normalized: r0:TDELIM( - )
#
DISCID=1e0bf814
DTITLE=Several Country Artists - Country Round Up Volume one
DYEAR=1900
DGENRE=Country
TTITLE0=Lynn Anderson - Rosegarden
TTITLE1=Frankie Laine - Rawhide
TTITLE2=Anne Murray - Both Sides Now
TTITLE3=Roy Dursy - Three Hearts in a Tangle
TTITLE4=Dave Dudley - Six Days on the Road
TTITLE5=Ferlin Husky - Wings of a Dove
TTITLE6=Willie Nelson - I didn't Sleep a Wink
TTITLE7=Oakridge Boys - In the Shelter of His Arms
TTITLE8=Dolly Parton - Making Believe
TTITLE9=Tex Ritter - I Dreamed of a Hillbilly Heaven
TTITLE10=Billie Jo Spears - What Have They Done to My Song
TTITLE11=Anne Murray - All the Time
TTITLE12=Merl Travis - Sixteen Tons
TTITLE13=Porter Wagoner - A Satisfied Mind
TTITLE14=Ed Bruce - Kings of the Road
TTITLE15=Frankie Laine - I Believe
TTITLE16=Lynn Anderson - Stand by Your Man
TTITLE17=Waylon Jennings - Sally Was a Good Ol' Girl
TTITLE18=Billie Jo Spears - I'm So Lonely I Could Cry
TTITLE19=Faron Young - Hello Walls
EXTD=
EXTT0=
EXTT1=
EXTT2=
EXTT3=
EXTT4=
EXTT5=
EXTT6=
EXTT7=
EXTT8=
EXTT9=
EXTT10=
EXTT11=
EXTT12=
EXTT13=
EXTT14=
EXTT15=
EXTT16=
EXTT17=
EXTT18=
EXTT19=
PLAYORDER=
